<svg width="17" height="20" viewBox="0 0 17 20" fill="none" xmlns="http://www.w3.org/2000/svg">
<path d="M15.3088 7.021C14.8573 7.021 14.2592 7.011 13.5146 7.011C11.6987 7.011 10.2055 5.508 10.2055 3.675V0.459C10.2055 0.206 10.0036 0 9.75304 0H4.46363C1.99517 0 0 2.026 0 4.509V15.284C0 17.889 2.09022 20 4.66958 20H12.5463C15.0058 20 17 17.987 17 15.502V7.471C17 7.217 16.799 7.012 16.5475 7.013C16.1247 7.016 15.6177 7.021 15.3088 7.021Z" fill="#007EBA"/>
<path d="M12.584 0.567248C12.285 0.256248 11.763 0.470248 11.763 0.901248V3.53825C11.763 4.64425 12.674 5.55425 13.78 5.55425C14.477 5.56225 15.445 5.56425 16.267 5.56225C16.688 5.56125 16.902 5.05825 16.61 4.75425C15.555 3.65725 13.666 1.69125 12.584 0.567248Z" fill="#007EBA"/>
<path fill-rule="evenodd" clip-rule="evenodd" d="M5.47386 9.38768H8.85886C9.26986 9.38768 9.60386 9.05468 9.60386 8.64368C9.60386 8.23268 9.26986 7.89868 8.85886 7.89868H5.47386C5.06286 7.89868 4.72986 8.23268 4.72986 8.64368C4.72986 9.05468 5.06286 9.38768 5.47386 9.38768ZM5.47398 14.3819H10.918C11.329 14.3819 11.663 14.0489 11.663 13.6379C11.663 13.2269 11.329 12.8929 10.918 12.8929H5.47398C5.06298 12.8929 4.72998 13.2269 4.72998 13.6379C4.72998 14.0489 5.06298 14.3819 5.47398 14.3819Z" fill="white"/>
</svg>
