<svg width="24" height="24" viewBox="0 0 24 24" fill="none" xmlns="http://www.w3.org/2000/svg">
<path d="M6.43242 14.0862L5.73625 16.6852L3.19176 16.739C2.43133 15.3286 2 13.7148 2 12C2 10.3418 2.40328 8.77801 3.11813 7.40109H3.11867L5.38398 7.8164L6.37633 10.0681C6.16863 10.6736 6.05543 11.3236 6.05543 12C6.05551 12.7341 6.18848 13.4374 6.43242 14.0862Z" fill="#FBBB00"/>
<path d="M21.8253 10.1319C21.9401 10.7368 22 11.3615 22 12C22 12.7159 21.9247 13.4143 21.7813 14.0879C21.2945 16.3802 20.0225 18.3819 18.2605 19.7984L18.2599 19.7978L15.4066 19.6522L15.0028 17.1313C16.172 16.4456 17.0858 15.3725 17.5671 14.0879H12.2198V10.1319H17.6451H21.8253Z" fill="#518EF8"/>
<path d="M18.2599 19.7978L18.2604 19.7984C16.5467 21.1758 14.3698 22 12 22C8.19177 22 4.8808 19.8715 3.19177 16.739L6.43244 14.0863C7.27693 16.3401 9.45111 17.9445 12 17.9445C13.0956 17.9445 14.122 17.6484 15.0027 17.1313L18.2599 19.7978Z" fill="#28B446"/>
<path d="M18.383 4.30219L15.1434 6.95438C14.2319 6.38461 13.1544 6.05547 12 6.05547C9.39344 6.05547 7.17859 7.73348 6.37641 10.0681L3.11871 7.40109H3.11816C4.78246 4.19231 8.1352 2 12 2C14.4264 2 16.6511 2.8643 18.383 4.30219Z" fill="#F14336"/>
</svg>
