<svg width="27" height="20" viewBox="0 0 27 20" fill="none" xmlns="http://www.w3.org/2000/svg">
<path fill-rule="evenodd" clip-rule="evenodd" d="M25.234 0.0911982C25.8416 0.286214 26.3388 0.65974 26.6752 1.17419L27 1.67088V10.0134V18.356L26.6714 18.8585C26.4907 19.1349 26.1036 19.5048 25.8111 19.6806L25.2794 20H13.5H1.72059L1.18892 19.6806C0.896425 19.5048 0.509295 19.1349 0.328632 18.8585L0 18.356V10.0134V1.67088L0.328632 1.16836C0.509295 0.891927 0.896425 0.522008 1.18892 0.346272L1.72059 0.0268402L13.3015 0.00256734C19.671 -0.0107481 25.0406 0.0290595 25.234 0.0911982ZM2.84559 1.72664C2.84559 1.7842 5.16124 4.2574 7.99147 7.22272C12.2604 11.6953 13.1992 12.6141 13.5 12.6141C13.8008 12.6141 14.7396 11.6953 19.0085 7.22272C21.8388 4.2574 24.1544 1.7842 24.1544 1.72664C24.1544 1.66908 19.3599 1.62192 13.5 1.62192C7.64007 1.62192 2.84559 1.66908 2.84559 1.72664ZM18.7279 10.0134C18.7279 10.0908 20.2467 11.7448 22.1029 13.689L25.4779 17.2239V10.0134V2.80297L22.1029 6.3378C20.2467 8.282 18.7279 9.93602 18.7279 10.0134ZM1.52206 10.0471V17.2239L4.89706 13.689C6.75331 11.7448 8.27206 10.0918 8.27206 10.0155C8.27206 9.90093 1.66381 2.87024 1.55607 2.87024C1.53741 2.87024 1.52206 6.09979 1.52206 10.0471ZM14.4991 14.1097C14.0479 14.3513 12.9105 14.3269 12.4381 14.0655C12.2213 13.9456 11.4791 13.2498 10.7885 12.5191L9.53298 11.1906L6.18922 14.6927C4.35031 16.6188 2.84559 18.2421 2.84559 18.2999C2.84559 18.3576 7.64007 18.4049 13.5 18.4049C19.3599 18.4049 24.1544 18.3586 24.1544 18.3019C24.1544 18.2453 22.6513 16.6227 20.8141 14.6963L17.4738 11.1938L16.1486 12.5649C15.4198 13.3191 14.6775 14.0143 14.4991 14.1097Z" fill="#FFC700"/>
</svg>
